<svg width="365" height="90" xmlns="http://www.w3.org/2000/svg" fill="none">
 <defs>
  <linearGradient y2="1.45827" x2="0.5" y1="-0.27343" x1="0.5" id="paint0_linear_5_1238">
   <stop stop-color="#0BF7FE"/>
   <stop stop-color="#38C6FB" offset="1"/>
  </linearGradient>
 </defs>
 <g>
  <title>Layer 1</title>
  <g id="svg_9">
   <path id="svg_1" fill="#034369" d="m165.42759,68.383c-3.159,0 -6.098,-0.54 -8.817,-1.62c-2.679,-1.119 -5.038,-2.679 -7.078,-4.678c-1.999,-2 -3.559,-4.319 -4.678,-6.958c-1.12,-2.679 -1.68,-5.5585 -1.68,-8.6376c0,-3.079 0.56,-5.9382 1.68,-8.5774c1.119,-2.6791 2.679,-4.9984 4.678,-6.9578c2,-1.9594 4.339,-3.479 7.018,-4.5586c2.719,-1.1197 5.658,-1.6795 8.817,-1.6795c3.359,0 6.339,0.5398 8.938,1.6195c2.23,0.9126 4.218,2.1108 5.964,3.5948c0.527,0.4483 0.535,1.2466 0.048,1.7383l-4.506,4.5482c-0.495,0.4996 -1.302,0.4818 -1.837,0.0251c-0.919,-0.7844 -1.968,-1.4274 -3.148,-1.9289c-1.56,-0.6798 -3.379,-1.0196 -5.459,-1.0196c-1.839,0 -3.538,0.3199 -5.098,0.9597c-1.52,0.5998 -2.839,1.4795 -3.959,2.6392c-1.079,1.1596 -1.939,2.5592 -2.579,4.1987c-0.6,1.6395 -0.9,3.4389 -0.9,5.3983c0,1.9994 0.3,3.8189 0.9,5.4586c0.64,1.639 1.5,3.039 2.579,4.198c1.12,1.16 2.439,2.06 3.959,2.7c1.56,0.639 3.259,0.959 5.098,0.959c2.16,0 4.039,-0.34 5.639,-1.019c1.195,-0.508 2.268,-1.162 3.218,-1.96c0.53,-0.446 1.322,-0.458 1.811,0.032l4.555,4.554c0.498,0.498 0.483,1.313 -0.06,1.76c-1.801,1.482 -3.816,2.679 -6.045,3.591c-2.6,1.08 -5.619,1.62 -9.058,1.62z"/>
   <path id="svg_2" fill="#034369" d="m131.99959,67.723c-0.684,0 -1.239,-0.555 -1.239,-1.239l0,-39.8693c0,-0.6842 0.555,-1.2388 1.239,-1.2388l6.939,0c0.684,0 1.239,0.5546 1.239,1.2388l0,39.8693c0,0.684 -0.555,1.239 -1.239,1.239l-6.939,0z"/>
   <path id="svg_3" fill="#034369" d="m183.68959,66.484c0,0.684 0.555,1.239 1.239,1.239l6.939,0c0.044,0 0.087,-0.002 0.13,-0.007c0.042,0.005 0.085,0.007 0.129,0.007l20.735,0c0.684,0 1.239,-0.555 1.239,-1.239l0,-5.68c0,-0.684 -0.555,-1.239 -1.239,-1.239l-19.755,0l0,-9.5367l17.656,0c0.684,0 1.238,-0.5546 1.238,-1.2388l0,-5.3799c0,-0.6842 -0.554,-1.2389 -1.238,-1.2389l-17.656,0l0,-8.6973l19.455,0c0.684,0 1.239,-0.5547 1.239,-1.2389l0,-5.6198c0,-0.6842 -0.555,-1.2388 -1.239,-1.2388l-20.435,0c-0.044,0 -0.087,0.0022 -0.129,0.0066c-0.043,-0.0044 -0.086,-0.0066 -0.13,-0.0066l-6.939,0c-0.684,0 -1.239,0.5546 -1.239,1.2388l0,39.8693z"/>
   <path id="svg_4" fill="#034369" d="m226.02959,67.723c-0.064,0 -0.127,-0.005 -0.189,-0.014c-0.061,0.009 -0.125,0.014 -0.189,0.014l-6.819,0c-0.685,0 -1.239,-0.555 -1.239,-1.239l0,-39.8693c0,-0.6842 0.554,-1.2388 1.239,-1.2388l6.819,0c0.064,0 0.128,0.0049 0.189,0.0143c0.062,-0.0094 0.125,-0.0143 0.189,-0.0143l9.738,0c2.719,0 5.019,0.4998 6.898,1.4995c1.92,0.9997 3.379,2.3393 4.379,4.0188c0.999,1.6795 1.499,3.5389 1.499,5.5783c0,2.5992 -0.839,4.7985 -2.519,6.598c-0.723,0.7752 -1.595,1.4465 -2.616,2.0139c1.431,0.7011 2.643,1.5893 3.636,2.6646c1.959,2.0794 2.939,4.639 2.939,7.678c0,2.319 -0.58,4.418 -1.74,6.298c-1.119,1.839 -2.759,3.299 -4.918,4.378c-2.119,1.08 -4.679,1.62 -7.678,1.62l-9.618,0zm0.861,-7.318l7.858,0c1.839,0 3.279,-0.54 4.318,-1.619c1.04,-1.08 1.56,-2.4 1.56,-3.959c0,-1.08 -0.24,-2.039 -0.72,-2.879c-0.48,-0.84 -1.16,-1.4998 -2.039,-1.9796c-0.84,-0.4799 -1.88,-0.7198 -3.119,-0.7198l-7.858,0l0,11.1564zm7.078,-18.2942l-7.078,0l0,-9.4172l7.078,0c1.559,0 2.819,0.3999 3.779,1.1997c0.959,0.7597 1.439,1.9194 1.439,3.4789c0,1.5995 -0.48,2.7992 -1.439,3.5989c-0.96,0.7598 -2.22,1.1397 -3.779,1.1397z" clip-rule="evenodd" fill-rule="evenodd"/>
   <path id="svg_5" fill="#034369" d="m253.01959,66.484c0,0.684 0.555,1.239 1.239,1.239l6.94,0c0.043,0 0.086,-0.002 0.129,-0.007c0.042,0.005 0.086,0.007 0.129,0.007l20.735,0c0.685,0 1.239,-0.555 1.239,-1.239l0,-5.68c0,-0.684 -0.554,-1.239 -1.239,-1.239l-19.754,0l0,-9.5367l17.655,0c0.684,0 1.239,-0.5546 1.239,-1.2388l0,-5.3799c0,-0.6842 -0.555,-1.2389 -1.239,-1.2389l-17.655,0l0,-8.6973l19.454,0c0.685,0 1.239,-0.5547 1.239,-1.2389l0,-5.6198c0,-0.6842 -0.554,-1.2388 -1.239,-1.2388l-20.435,0c-0.043,0 -0.087,0.0022 -0.129,0.0066c-0.043,-0.0044 -0.086,-0.0066 -0.129,-0.0066l-6.94,0c-0.684,0 -1.239,0.5546 -1.239,1.2388l0,39.8693z"/>
   <path id="svg_6" fill="#034369" d="m296.34059,66.484l0,-16.2157l1.237,0c0.009,0.2317 0.084,0.4653 0.235,0.6737l11.773,16.268c0.233,0.322 0.606,0.513 1.004,0.513l8.018,0c1.026,0 1.608,-1.176 0.985,-1.991l-12.045,-15.7686c1.441,-0.2564 2.764,-0.6746 3.969,-1.2546c2.159,-1.0397 3.839,-2.4793 5.038,-4.3187c1.2,-1.8795 1.8,-4.0588 1.8,-6.538c0,-2.4393 -0.6,-4.5986 -1.8,-6.4781c-1.199,-1.8794 -2.859,-3.3389 -4.978,-4.3786c-2.12,-1.0797 -4.579,-1.6195 -7.378,-1.6195l-8.838,0c-0.044,0 -0.087,0.0022 -0.129,0.0066c-0.043,-0.0044 -0.086,-0.0066 -0.13,-0.0066l-6.939,0c-0.684,0 -1.239,0.5546 -1.239,1.2388l0,39.8693c0,0.684 0.555,1.239 1.239,1.239l6.939,0c0.685,0 1.239,-0.555 1.239,-1.239zm6.718,-23.1736l-6.718,0l0,-10.6168l6.778,0c1.88,0 3.319,0.4999 4.319,1.4996c1,0.9997 1.499,2.2593 1.499,3.7788c0,1.6395 -0.519,2.9391 -1.559,3.8988c-1,0.9597 -2.439,1.4396 -4.319,1.4396z" clip-rule="evenodd" fill-rule="evenodd"/>
   <path id="svg_7" fill="#034369" d="m333.33459,66.703c2.719,1.12 5.618,1.68 8.697,1.68c4.199,0 7.898,-0.88 11.097,-2.639c3.239,-1.76 5.758,-4.359 7.557,-7.798c1.84,-3.479 2.759,-7.7577 2.759,-12.8362l0,-0.1406c0,-0.6843 -0.554,-1.2389 -1.239,-1.2389l-19.775,0c-0.684,0 -1.239,0.5546 -1.239,1.2389l0,5.5193c0,0.6765 0.543,1.2275 1.219,1.2385l10.947,0.174c-0.233,0.881 -0.55,1.697 -0.949,2.446c-0.92,1.759 -2.26,3.119 -4.019,4.079c-1.72,0.92 -3.819,1.379 -6.298,1.379c-2.439,0 -4.599,-0.559 -6.478,-1.679c-1.88,-1.12 -3.359,-2.679 -4.439,-4.679c-1.079,-1.999 -1.619,-4.3184 -1.619,-6.9576c0,-2.6392 0.54,-4.9385 1.619,-6.8979c1.12,-1.9994 2.659,-3.5389 4.619,-4.6186c1.959,-1.1196 4.179,-1.6794 6.658,-1.6794c2.319,0 4.398,0.4398 6.238,1.3195c1.444,0.6907 2.74,1.6524 3.888,2.8852c0.509,0.5464 1.378,0.6062 1.906,0.0781l4.617,-4.6171c0.455,-0.4553 0.489,-1.1868 0.045,-1.6532c-1.828,-1.9193 -4.054,-3.4562 -6.677,-4.6105c-2.959,-1.3196 -6.258,-1.9794 -9.897,-1.9794c-3.159,0 -6.118,0.5598 -8.878,1.6795c-2.759,1.0796 -5.178,2.6192 -7.257,4.6185c-2.04,1.9594 -3.639,4.2587 -4.799,6.8979c-1.16,2.6392 -1.739,5.4984 -1.739,8.5774c0,3.0791 0.559,5.9586 1.679,8.6376c1.16,2.639 2.739,4.958 4.739,6.958c1.999,1.959 4.338,3.499 7.018,4.618z"/>
   <path id="svg_8" fill="url(#paint0_linear_5_1238)" d="m6.86089,10.2919c-5.3055,6.7464 -5.3055,16.6209 -5.3055,36.3698c0,19.7493 0,29.6233 5.3055,36.3703c1.2175,1.548 2.6152,2.945 4.1634,4.163c0.5925,0.466 1.2092,0.891 1.8546,1.279l26.1155,-57.6578c1.1353,-2.5066 4.0107,-3.7145 6.5955,-2.7709l16.5957,6.0587c1.568,0.5723 2.771,1.8546 3.242,3.4555l15.199,51.6175c1.124,-0.561 2.163,-1.216 3.137,-1.982c1.549,-1.218 2.946,-2.615 4.164,-4.163c5.305,-6.747 5.305,-16.621 5.305,-36.3703c0,-19.7489 0,-29.6234 -5.305,-36.3698c-1.218,-1.5482 -2.615,-2.9459 -4.164,-4.1634c-6.746,-5.3055 -16.621,-5.3055 -36.3695,-5.3055c-19.7489,0 -29.6234,0 -36.3698,5.3055c-1.5482,1.2175 -2.9459,2.6152 -4.1634,4.1634z"/>
  </g>
 </g>
</svg>